<svg width="25" height="24" viewBox="0 0 25 24" fill="none" xmlns="http://www.w3.org/2000/svg">
<path d="M16.3638 9V6C16.3638 3.79086 14.5729 2 12.3638 2C10.1546 2 8.36377 3.79086 8.36377 6V9M3.95578 10.352L3.35578 16.752C3.18518 18.5717 3.09988 19.4815 3.40182 20.1843C3.66707 20.8016 4.13189 21.3121 4.72179 21.6338C5.3933 22 6.30714 22 8.13482 22H16.5927C18.4204 22 19.3342 22 20.0058 21.6338C20.5957 21.3121 21.0605 20.8016 21.3257 20.1843C21.6277 19.4815 21.5424 18.5717 21.3718 16.752L20.7718 10.352C20.6277 8.81535 20.5557 8.04704 20.2101 7.46616C19.9058 6.95458 19.4561 6.54511 18.9184 6.28984C18.3078 6 17.5361 6 15.9927 6L8.73482 6C7.19146 6 6.41978 6 5.80919 6.28984C5.27144 6.54511 4.82178 6.95458 4.51743 7.46616C4.17186 8.04704 4.09983 8.81534 3.95578 10.352Z" stroke="white" stroke-width="2" stroke-linecap="round" stroke-linejoin="round"/>
</svg>
