<svg width="25" height="24" viewBox="0 0 25 24" fill="none" xmlns="http://www.w3.org/2000/svg">
<path d="M10.863 9.00224C11.0392 8.50136 11.387 8.079 11.8448 7.80998C12.3025 7.54095 12.8407 7.4426 13.364 7.53237C13.8874 7.62213 14.362 7.89421 14.704 8.30041C15.0459 8.70661 15.2331 9.22072 15.2323 9.75168C15.2323 11.2506 12.9839 12 12.9839 12M13.0129 15H13.0229M12.863 20C17.5574 20 21.363 16.1944 21.363 11.5C21.363 6.80558 17.5574 3 12.863 3C8.16861 3 4.36303 6.80558 4.36303 11.5C4.36303 12.45 4.51888 13.3636 4.8064 14.2166C4.9146 14.5376 4.9687 14.6981 4.97846 14.8214C4.98809 14.9432 4.98081 15.0286 4.95068 15.1469C4.92018 15.2668 4.85282 15.3915 4.71812 15.6408L3.08246 18.6684C2.84915 19.1002 2.7325 19.3161 2.75861 19.4828C2.78135 19.6279 2.86678 19.7557 2.9922 19.8322C3.13621 19.9201 3.38033 19.8948 3.86857 19.8444L8.98959 19.315C9.14467 19.299 9.22221 19.291 9.29289 19.2937C9.3624 19.2963 9.41147 19.3029 9.47926 19.3185C9.54818 19.3344 9.63485 19.3678 9.80818 19.4345C10.7562 19.7998 11.7862 20 12.863 20Z" stroke="white" stroke-width="2" stroke-linecap="round" stroke-linejoin="round"/>
</svg>
