<svg width="31" height="30" viewBox="0 0 31 30" fill="none" xmlns="http://www.w3.org/2000/svg">
<path d="M26.6995 8.50441V12.7505C26.6995 12.7505 23.0298 12.9505 20.1245 10.5275V20.2547C20.1245 20.6311 20.0892 20.9957 20.0187 21.3721C19.6658 23.1011 18.1956 27.4766 12.4086 27.9824C12.1146 28.0059 11.8205 28.0059 11.5265 27.9824C9.87978 27.8412 4.95149 26.9238 3.97524 20.9957C3.85762 20.3135 3.84586 19.6195 3.95171 18.9373C4.24577 16.9143 6.33941 11.3508 13.2202 12.0213V16.2438C13.2202 16.2438 10.2679 15.5381 8.83296 17.8199C8.08019 19.0197 7.99786 20.5252 8.63301 21.7838C9.11525 22.7482 10.0915 23.7363 11.997 23.8068C12.7968 23.8068 15.3374 23.5245 15.902 20.3841V2H20.1245C20.1245 2 20.1245 8.09274 26.7113 8.50441H26.6995Z" fill="#1A1A1A"/>
</svg>
