<svg width="31" height="31" viewBox="0 0 31 31" fill="none" xmlns="http://www.w3.org/2000/svg">
<path fill-rule="evenodd" clip-rule="evenodd" d="M25.4603 6.55046C26.5796 6.84862 27.4603 7.73394 27.7585 8.86239C28.2998 10.9037 28.2952 15.1605 28.2952 15.1605C28.2952 15.1605 28.2952 19.4174 27.7539 21.4587C27.4557 22.5826 26.575 23.4679 25.4557 23.7706C23.4282 24.3165 15.2952 24.3165 15.2952 24.3165C15.2952 24.3165 7.16214 24.3165 5.13462 23.7706C4.01535 23.4725 3.13462 22.5872 2.83645 21.4587C2.29517 19.4174 2.29517 15.1605 2.29517 15.1605C2.29517 15.1605 2.29517 10.9037 2.84104 8.8578C3.1392 7.73394 4.01994 6.84862 5.1392 6.54587C7.16673 6 15.2998 6 15.2998 6C15.2998 6 23.4282 6 25.4603 6.55046ZM19.4372 15.1609L12.639 11.2939V19.0279L19.4372 15.1609Z" fill="#1A1A1A"/>
</svg>
