<svg width="32" height="30" viewBox="0 0 32 30" fill="none" xmlns="http://www.w3.org/2000/svg">
<path d="M22.8487 5.45941C21.1966 3.87348 18.9104 3 16.4111 3C12.5934 3 10.2453 4.56493 8.9478 5.87768C7.34869 7.49549 6.43176 9.64364 6.43176 11.7714C6.43176 14.443 7.54923 16.4935 9.42054 17.2563C9.54617 17.3078 9.67259 17.3337 9.79653 17.3337C10.1913 17.3337 10.5041 17.0754 10.6125 16.6611C10.6757 16.4234 10.822 15.8369 10.8857 15.5823C11.0219 15.0796 10.9118 14.8378 10.6147 14.4876C10.0735 13.8472 9.82147 13.09 9.82147 12.1044C9.82147 9.177 12.0013 6.06579 16.0413 6.06579C19.2469 6.06579 21.2382 7.88774 21.2382 10.8205C21.2382 12.6713 20.8396 14.3852 20.1155 15.6469C19.6123 16.5235 18.7276 17.5685 17.3693 17.5685C16.782 17.5685 16.2543 17.3273 15.9214 16.9066C15.6069 16.509 15.5032 15.9953 15.6298 15.4599C15.7726 14.8551 15.9675 14.2241 16.1561 13.6142C16.5 12.5001 16.8251 11.4479 16.8251 10.6084C16.8251 9.17255 15.9424 8.20771 14.6287 8.20771C12.9592 8.20771 11.6512 9.90338 11.6512 12.0681C11.6512 13.1297 11.9333 13.9238 12.0611 14.2287C11.8508 15.1198 10.6008 20.4176 10.3637 21.4166C10.2266 21.9998 9.40071 26.606 10.7676 26.9732C12.3035 27.3859 13.6763 22.8998 13.816 22.3929C13.9293 21.9806 14.3255 20.4217 14.5684 19.4634C15.3098 20.1776 16.5036 20.6604 17.6651 20.6604C19.8549 20.6604 21.8242 19.675 23.2104 17.8859C24.5547 16.1506 25.2951 13.7319 25.2951 11.0757C25.295 8.99925 24.4033 6.95211 22.8487 5.45941Z" fill="#1A1A1A"/>
</svg>
