<svg width="31" height="31" viewBox="0 0 31 31" fill="none" xmlns="http://www.w3.org/2000/svg">
<path fill-rule="evenodd" clip-rule="evenodd" d="M15.5112 2C7.74322 2 1.43176 7.10588 1.43176 13.3647C1.43176 17.3176 4.02108 20.7765 7.74322 22.9177L6.77222 28.3529L12.76 24.4C13.5692 24.5647 14.5401 24.5647 15.3493 24.5647H15.3493C23.1173 24.5647 29.4287 19.4588 29.4287 13.2C29.5906 7.10588 23.2791 2 15.5112 2ZM6.76723 11.4836H5.36022C5.18583 11.4886 5.01359 11.444 4.86363 11.3548C4.79704 11.3131 4.7398 11.258 4.69549 11.1932C4.65118 11.1283 4.62076 11.0549 4.60613 10.9777C4.60167 10.9288 4.60167 10.8796 4.60613 10.8307C4.60176 10.7391 4.61954 10.6478 4.65796 10.5645C4.69638 10.4813 4.75431 10.4086 4.82684 10.3525C4.98716 10.2364 5.18067 10.175 5.37861 10.1777H9.61804C9.79381 10.1715 9.96722 10.2197 10.1146 10.3156C10.1828 10.3555 10.2412 10.4101 10.2858 10.4753C10.3303 10.5405 10.3598 10.6147 10.3721 10.6927C10.3766 10.7386 10.3766 10.7848 10.3721 10.8307C10.3765 10.9236 10.3587 11.0162 10.3204 11.1009C10.282 11.1856 10.2241 11.26 10.1514 11.318C9.995 11.434 9.80336 11.4925 9.60884 11.4836H8.24781V16.3208C8.25334 16.4238 8.23739 16.5268 8.20098 16.6234C8.16457 16.72 8.10849 16.808 8.0363 16.8817C7.96707 16.9522 7.88386 17.0075 7.792 17.0439C7.70014 17.0804 7.60166 17.0971 7.50292 17.0932C7.33021 17.0981 7.16117 17.0429 7.02472 16.9369C6.89482 16.8334 6.80666 16.6864 6.77643 16.523C6.76734 16.4559 6.76734 16.3879 6.77643 16.3208L6.76723 11.4836ZM11.431 10.1685C11.2997 10.254 11.2047 10.385 11.1643 10.5364L9.21469 15.8242C9.20435 15.8526 9.19183 15.8817 9.17918 15.9112C9.1468 15.9866 9.11353 16.0642 9.11353 16.1369C9.09774 16.2282 9.09774 16.3214 9.11353 16.4127C9.10865 16.4647 9.10865 16.5171 9.11353 16.5691C9.14047 16.7216 9.22224 16.8589 9.34343 16.9553C9.46783 17.0487 9.62015 17.0973 9.77565 17.0932C9.91921 17.1113 10.0646 17.079 10.187 17.0018C10.3094 16.9247 10.4013 16.8075 10.447 16.6702L10.8332 15.5391H13.2518L13.638 16.6702C13.6848 16.8049 13.7756 16.9198 13.8958 16.9966C14.0159 17.0733 14.1583 17.1073 14.3002 17.0932C14.3924 17.0954 14.4841 17.0786 14.5695 17.0438C14.655 17.009 14.7323 16.957 14.7968 16.8909C14.8632 16.8308 14.9158 16.7568 14.9507 16.6742C14.9857 16.5916 15.0022 16.5023 14.9991 16.4127C15.0022 16.3545 15.0022 16.2962 14.9991 16.238C14.9671 16.0979 14.9272 15.9597 14.8795 15.8242L13.0403 10.6283C12.9963 10.4442 12.8847 10.2833 12.7276 10.1777C12.5794 10.0934 12.4106 10.052 12.2402 10.0581H11.8908C11.7302 10.051 11.5708 10.0892 11.431 10.1685ZM11.2103 14.5L12.0839 11.7411L12.9483 14.5H11.2103ZM15.5409 10.8306C15.5315 10.6242 15.6042 10.4226 15.7432 10.2697C15.8138 10.1984 15.8986 10.1428 15.992 10.1063C16.0855 10.0699 16.1855 10.0534 16.2857 10.0581C16.458 10.056 16.6261 10.111 16.7639 10.2144C16.8917 10.3223 16.9765 10.4724 17.003 10.6374C17.0121 10.7015 17.0121 10.7666 17.003 10.8306V15.6678H19.532C19.7073 15.6655 19.8796 15.7133 20.0286 15.8057C20.0955 15.8469 20.1531 15.9019 20.1974 15.9669C20.2418 16.0318 20.272 16.1053 20.2861 16.1827V16.3207C20.2904 16.4123 20.2727 16.5035 20.2342 16.5867C20.1958 16.67 20.1379 16.7428 20.0654 16.7989C19.905 16.915 19.7115 16.9762 19.5136 16.9736H16.4053C16.2073 16.9863 16.0105 16.9348 15.8443 16.8265C15.6956 16.7154 15.5966 16.5502 15.5684 16.3667C15.5617 16.2657 15.5617 16.1642 15.5684 16.0632L15.5409 10.8306ZM21.0892 10.2699C20.9536 10.4248 20.8814 10.6251 20.8869 10.8309L20.8317 16.2749C20.8226 16.3421 20.8226 16.4102 20.8317 16.4773C20.862 16.6407 20.9501 16.7876 21.08 16.8911C21.2136 16.9958 21.3793 17.051 21.549 17.0475C21.6506 17.0517 21.7519 17.0351 21.8468 16.9988C21.9417 16.9624 22.0281 16.9069 22.1008 16.8359C22.2364 16.681 22.3086 16.4807 22.3031 16.2749V14.7392L23.1216 13.8839L24.8321 16.6428C24.9029 16.7721 25.0039 16.8825 25.1263 16.9646C25.2395 17.0241 25.3664 17.0528 25.4942 17.0475C25.6865 17.0502 25.8741 16.9886 26.0276 16.8727C26.1091 16.8033 26.1727 16.7153 26.2127 16.616C26.2527 16.5167 26.2681 16.4091 26.2575 16.3025V16.2566C26.2067 16.102 26.1322 15.9561 26.0368 15.8243V15.7324L24.1975 12.8816L25.7241 11.2078C25.7914 11.1318 25.85 11.0487 25.8988 10.9596C25.9467 10.8756 25.9721 10.7805 25.9724 10.6837C25.9679 10.6625 25.9679 10.6406 25.9724 10.6194C25.9761 10.6012 25.9761 10.5824 25.9724 10.5641C25.9593 10.4899 25.9314 10.4191 25.8903 10.3559C25.8492 10.2927 25.7958 10.2384 25.7333 10.1963C25.6006 10.1056 25.4434 10.0574 25.2827 10.0583C25.1728 10.0562 25.0645 10.0849 24.97 10.1412C24.8698 10.2211 24.7746 10.307 24.6849 10.3986L22.3583 13.0839V10.8309C22.3628 10.7666 22.3628 10.702 22.3583 10.6377C22.3286 10.4716 22.2405 10.3216 22.11 10.2147C21.9595 10.105 21.7758 10.0506 21.5898 10.0607C21.4038 10.0707 21.227 10.1447 21.0892 10.2699Z" fill="#1A1A1A"/>
</svg>
