<svg width="31" height="30" viewBox="0 0 31 30" fill="none" xmlns="http://www.w3.org/2000/svg">
<path fill-rule="evenodd" clip-rule="evenodd" d="M10.4136 3H20.559C24.3772 3 27.4318 6.05455 27.4318 9.87273V20.0182C27.4318 23.9455 24.3772 27 20.559 27H10.4136C6.48631 27 3.43176 23.9455 3.43176 20.0182V9.87273C3.43176 6.05455 6.48631 3 10.4136 3ZM9.21358 15.1091C9.21358 18.4909 11.9409 21.3273 15.4318 21.3273C18.9227 21.3273 21.6499 18.3818 21.6499 15C21.6499 11.6182 18.9227 8.78182 15.4318 8.78182C11.9409 8.78182 9.21358 11.7273 9.21358 15.1091ZM20.4499 8.67273C20.4499 9.43636 21.1045 10.0909 21.8681 10.0909C22.6318 10.0909 23.2863 9.43636 23.2863 8.67273C23.2863 7.90909 22.6318 7.25455 21.8681 7.25455C21.1045 7.25455 20.4499 7.90909 20.4499 8.67273ZM11.4318 15.0005C11.4318 12.8383 13.2696 11.0005 15.4318 11.0005C17.5939 11.0005 19.4318 12.8383 19.4318 15.0005C19.4318 17.1627 17.5939 19.0005 15.4318 19.0005C13.2696 19.0005 11.4318 17.1627 11.4318 15.0005Z" fill="#1A1A1A"/>
</svg>
