<svg width="31" height="30" viewBox="0 0 31 30" fill="none" xmlns="http://www.w3.org/2000/svg">
<g clip-path="url(#clip0_84_1311)">
<path d="M15.2836 3.04004C8.68266 3.04004 3.3313 8.39126 3.3313 14.9922C3.3313 21.5934 8.68266 26.9442 15.2836 26.9442C21.8852 26.9442 27.236 21.5934 27.236 14.9922C27.236 8.39169 21.8854 3.04004 15.2836 3.04004ZM20.7648 20.2785C20.5508 20.6296 20.0912 20.7409 19.7401 20.5254C16.9338 18.8113 13.401 18.423 9.24058 19.3736C8.83966 19.4649 8.44003 19.2137 8.34869 18.8127C8.25691 18.4116 8.50711 18.012 8.90903 17.9206C13.462 16.8805 17.3674 17.3283 20.5179 19.2537C20.869 19.4692 20.9804 19.9274 20.7648 20.2785ZM22.2278 17.024C21.958 17.4625 21.3843 17.6009 20.9461 17.3312C17.7333 15.3564 12.836 14.7845 9.03591 15.938C8.54308 16.0869 8.02256 15.8092 7.87298 15.3172C7.72454 14.8243 8.00243 14.3048 8.49441 14.155C12.8351 12.8379 18.2315 13.4759 21.9209 15.7431C22.3591 16.0128 22.4975 16.5864 22.2278 17.024ZM22.3534 13.6352C18.5012 11.3471 12.1456 11.1367 8.46772 12.253C7.87712 12.4321 7.25255 12.0987 7.07357 11.5081C6.89459 10.9172 7.22772 10.2931 7.81874 10.1135C12.0407 8.83186 19.0593 9.07949 23.4943 11.7124C24.0267 12.0276 24.2008 12.7137 23.8854 13.2442C23.5714 13.7755 22.8829 13.9506 22.3534 13.6352Z" fill="#1A1A1A"/>
</g>
<defs>
<clipPath id="clip0_84_1311">
<rect width="24" height="24" fill="white" transform="translate(3.29517 3)"/>
</clipPath>
</defs>
</svg>
