<svg width="135" height="24" viewBox="0 0 135 24" fill="none" xmlns="http://www.w3.org/2000/svg">
<path fill-rule="evenodd" clip-rule="evenodd" d="M58.4634 22.5742L58.6634 23.0782L61.2634 23.2629V23.5399H51.7634V23.2629H54.5634L51.6634 15.8769H45.5634C45.8634 16.4308 45.9634 17.1694 45.9634 17.908V20.6778C45.9634 22.155 46.5634 23.6322 47.9634 23.6322C48.6634 23.6322 49.3634 23.3552 50.0634 22.7089L50.2634 22.8936C49.4634 23.6322 48.5634 24.0015 47.0634 24.0015C45.9634 24.0015 44.9634 23.7245 44.1634 23.2629L44.0634 23.1706C43.0634 22.432 42.4634 21.3241 42.1634 19.7545V19.2006L40.6634 23.0782H42.7634V23.3552H38.2634V23.0782H40.3634L42.1634 18.3697V15.6922C42.1634 13.1995 40.1634 11.8146 36.6634 11.8146H33.2634V23.1706H35.7634V23.4475H24.8634V23.1706H27.5634L24.6634 15.7846H16.4634L13.5634 22.9859C17.3634 22.3396 19.1634 19.5699 19.1634 16.7078H19.4634V23.3552H0.463379L14.3634 1.19722H9.06338C4.36338 1.19722 2.26338 4.52092 2.26338 7.84461H1.96338V0.827916H19.0634L5.16338 22.9859H13.1634L22.1634 0.181641H22.4634L29.5634 18.185V1.19722H26.2634V0.827916H36.8634C41.6634 0.827916 45.0634 3.13604 45.0634 6.45974C45.0634 8.86019 42.6634 10.8913 39.2634 11.4453L38.7634 11.5376L39.2634 11.6299C41.3634 11.9069 42.9634 12.4609 44.1634 13.3841L49.3634 0.181641H49.6634L54.7634 13.2413V1.28942H51.6634V0.920121H61.6634V1.1971H58.5634V11.5375H68.4634V1.28942H65.3634V0.920121H75.3634V1.28942H72.2634V9.59867C73.3634 4.33615 77.7634 0.458496 83.1634 0.458496C88.5634 0.458496 92.9634 4.42847 94.0634 9.691V1.28942H90.9634V0.920121H98.1634L105.163 18.2772L111.563 0.920121H133.263V6.64427H132.963C132.963 3.68987 131.263 1.1971 126.963 1.1971H122.763V11.5375H124.263C127.063 11.5375 128.663 10.1526 128.663 7.93682H128.963V15.4151H128.663C128.663 13.2917 127.063 11.9068 124.263 11.9068H122.763V23.0781H126.863C132.363 23.0781 134.563 20.216 134.563 16.8V16.7077H134.863V23.2628H108.363V22.9858H111.563V1.9357L103.363 23.909H103.263L94.2634 1.28942V23.0781H97.8634V23.3551H90.3634V23.0781H93.9634V14.5842C92.9634 19.8467 88.4634 23.8167 83.0634 23.8167C77.6634 23.8167 73.2634 19.9391 72.1634 14.6765V23.0781H75.2634V23.3551H65.2634V23.0781H68.3634V11.8145H58.4634V22.5742ZM20.5634 5.25952L16.5634 15.4153H24.5634L20.5634 5.25952ZM33.2634 1.28954V11.5376H36.6634C40.0634 11.5376 41.1634 10.522 41.1634 6.64439C41.1634 3.04372 39.3634 1.28954 35.8634 1.28954H33.2634ZM44.5634 13.8457C44.9634 14.3074 45.3634 14.8613 45.6634 15.4153H51.7634L47.7634 5.25952L44.4634 13.7534L44.5634 13.8457ZM83.0634 23.5397C84.8634 23.5397 86.2634 23.1704 87.4634 22.2472C89.2634 20.77 90.3634 17.7233 90.3634 12.0914C90.3634 6.55195 89.2634 3.50522 87.4634 2.12035C86.2634 1.1971 84.8634 0.827796 83.0634 0.827796C81.2634 0.827796 79.8634 1.1971 78.6634 2.12035C76.7634 3.59755 75.7634 6.64427 75.7634 12.1838C75.7634 17.7233 76.7634 20.77 78.6634 22.2472C79.8634 23.1704 81.2634 23.5397 83.0634 23.5397ZM115.363 23.0781H119.163V1.28942H115.363V23.0781Z" fill="#1A1A1A"/>
</svg>
